<?xml version="1.0" encoding="utf-8"?>
<!-- Generator: Adobe Illustrator 18.1.1, SVG Export Plug-In . SVG Version: 6.00 Build 0)  -->
<svg version="1.1" id="Layer_1" xmlns="http://www.w3.org/2000/svg" xmlns:xlink="http://www.w3.org/1999/xlink" x="0px" y="0px"
	 viewBox="0 0 1234.4 757.5" enable-background="new 0 0 1234.4 757.5" xml:space="preserve">
<pattern  x="247.9" y="-99.1" width="100" height="120" patternUnits="userSpaceOnUse" id="New_Pattern_Swatch_2" viewBox="6.2 -130.1 100 120" overflow="visible">
	<g>
		<polygon fill="none" points="6.2,-130.1 106.2,-130.1 106.2,-10.1 6.2,-10.1 		"/>
		<g>
			<path fill="#42210B" stroke="#42210B" stroke-width="1.4176" stroke-miterlimit="10" d="M82.3-17.8c0,0-9.6,17.1,0,17.1
				C82.3-0.7,92.2,0.4,82.3-17.8z"/>
			<path fill="none" stroke="#000000" stroke-width="1.4176" stroke-miterlimit="10" d="M80-17.8c0,0-9.6,17.1,0,17.1
				C80-0.7,89.9,0.4,80-17.8z"/>
		</g>
		<g>
			<path fill="#42210B" stroke="#42210B" stroke-width="1.4176" stroke-miterlimit="10" d="M32.3-17.8c0,0-9.6,17.1,0,17.1
				C32.3-0.7,42.2,0.4,32.3-17.8z"/>
			<path fill="none" stroke="#000000" stroke-width="1.4176" stroke-miterlimit="10" d="M30-17.8c0,0-9.6,17.1,0,17.1
				C30-0.7,39.9,0.4,30-17.8z"/>
		</g>
		<g>
			<path fill="#42210B" stroke="#42210B" stroke-width="1.4176" stroke-miterlimit="10" d="M107.3-77.8c0,0-9.6,17.1,0,17.1
				C107.3-60.7,117.2-59.6,107.3-77.8z"/>
			<path fill="none" stroke="#000000" stroke-width="1.4176" stroke-miterlimit="10" d="M105-77.8c0,0-9.6,17.1,0,17.1
				C105-60.7,114.9-59.6,105-77.8z"/>
		</g>
		<g>
			<path fill="#42210B" stroke="#42210B" stroke-width="1.4176" stroke-miterlimit="10" d="M57.3-77.8c0,0-9.6,17.1,0,17.1
				C57.3-60.7,67.2-59.6,57.3-77.8z"/>
			<path fill="none" stroke="#000000" stroke-width="1.4176" stroke-miterlimit="10" d="M55-77.8c0,0-9.6,17.1,0,17.1
				C55-60.7,64.9-59.6,55-77.8z"/>
		</g>
		<g>
			<path fill="#42210B" stroke="#42210B" stroke-width="1.4176" stroke-miterlimit="10" d="M7.3-77.8c0,0-9.6,17.1,0,17.1
				C7.3-60.7,17.2-59.6,7.3-77.8z"/>
			<path fill="none" stroke="#000000" stroke-width="1.4176" stroke-miterlimit="10" d="M5-77.8c0,0-9.6,17.1,0,17.1
				C5-60.7,14.9-59.6,5-77.8z"/>
		</g>
		<g>
			<path fill="#42210B" stroke="#42210B" stroke-width="1.4176" stroke-miterlimit="10" d="M82.3-137.8c0,0-9.6,17.1,0,17.1
				C82.3-120.7,92.2-119.6,82.3-137.8z"/>
			<path fill="none" stroke="#000000" stroke-width="1.4176" stroke-miterlimit="10" d="M80-137.8c0,0-9.6,17.1,0,17.1
				C80-120.7,89.9-119.6,80-137.8z"/>
		</g>
		<g>
			<path fill="#42210B" stroke="#42210B" stroke-width="1.4176" stroke-miterlimit="10" d="M32.3-137.8c0,0-9.6,17.1,0,17.1
				C32.3-120.7,42.2-119.6,32.3-137.8z"/>
			<path fill="none" stroke="#000000" stroke-width="1.4176" stroke-miterlimit="10" d="M30-137.8c0,0-9.6,17.1,0,17.1
				C30-120.7,39.9-119.6,30-137.8z"/>
		</g>
	</g>
</pattern>
<pattern  x="247.9" y="-99.1" width="71" height="90" patternUnits="userSpaceOnUse" id="New_Pattern_Swatch_3" viewBox="72.7 -90 71 90" overflow="visible">
	<g>
		<polygon fill="none" points="72.7,-90 143.7,-90 143.7,0 72.7,0 		"/>
		
			<path fill="#42210B" stroke="#42210B" stroke-width="4" stroke-linecap="round" stroke-linejoin="round" stroke-miterlimit="10" d="
			M214.3-74.9c-19.8,12.8-35.2,0-35.2,0c-19.8,12.8-35.2,0-35.2,0v59.7h70.3V-74.9z"/>
		
			<path fill="#42210B" stroke="#42210B" stroke-width="4" stroke-linecap="round" stroke-linejoin="round" stroke-miterlimit="10" d="
			M143.3-74.9c-19.8,12.8-35.2,0-35.2,0C88.3-62,73-74.9,73-74.9v59.7h70.3V-74.9z"/>
		
			<path fill="#42210B" stroke="#42210B" stroke-width="4" stroke-linecap="round" stroke-linejoin="round" stroke-miterlimit="10" d="
			M72.3-74.9c-19.8,12.8-35.2,0-35.2,0C17.3-62,2-74.9,2-74.9v59.7h70.3V-74.9z"/>
	</g>
</pattern>
<path fill="#42210B" stroke="#000000" stroke-width="3" stroke-miterlimit="10" d="M1965.3,1407.9h-159.7c-5.9,0-10.6-4.8-10.6-10.6
	v-33.7c0-5.9,4.8-10.6,10.6-10.6h159.7c5.9,0,10.6,4.8,10.6,10.6v33.7C1975.9,1403.1,1971.1,1407.9,1965.3,1407.9z"/>
<circle fill="#DEEFD4" cx="1887.5" cy="1113.9" r="76.8"/>
<g>
	<circle fill="none" stroke="#000000" stroke-width="3.0561" stroke-miterlimit="10" cx="848.6" cy="312.1" r="11.7"/>
	<circle fill="none" stroke="#000000" stroke-width="3.0561" stroke-miterlimit="10" cx="848.6" cy="312.1" r="4.4"/>
</g>
<circle fill="#DEEFD4" cx="122.9" cy="363.7" r="115"/>
<circle fill="#DEEFD4" cx="1125.8" cy="484.7" r="85"/>
<circle fill="#DEEFD4" cx="122.9" cy="175.7" r="51"/>
<path fill="#42210B" stroke="#42210B" stroke-width="3.0561" stroke-miterlimit="10" d="M172.4,410.7c24.2,47.3-15.3,46.8-15.3,46.8
	H91.4c0,0-39.4,0.5-15.3-46.8H172.4z"/>
<pattern  id="SVGID_1_" xlink:href="#New_Pattern_Swatch_2" patternTransform="matrix(1 0 0 1 -47 0)">
</pattern>
<rect x="261" y="15" fill="url(#SVGID_1_)" stroke="#000000" stroke-width="4" stroke-miterlimit="10" width="487.5" height="709.5"/>
<path fill="#42210B" stroke="#42210B" stroke-width="3" stroke-miterlimit="10" d="M126.6,157.6c0,0-20.2,36.2,0,36.1
	C126.6,193.8,147.6,196.1,126.6,157.6z"/>
<path fill="none" stroke="#000000" stroke-width="3" stroke-miterlimit="10" d="M121.6,157.6c0,0-20.2,36.2,0,36.1
	C121.6,193.8,142.6,196.1,121.6,157.6z"/>
<g>
	<path fill="#42210B" stroke="#42210B" stroke-width="3" stroke-miterlimit="10" d="M1300.8,330.2c0,0-20.2,36.2,0,36.1
		C1300.8,366.3,1321.8,368.7,1300.8,330.2z"/>
	<path fill="none" stroke="#000000" stroke-width="3" stroke-miterlimit="10" d="M1295.8,330.2c0,0-20.2,36.2,0,36.1
		C1295.8,366.3,1316.8,368.7,1295.8,330.2z"/>
</g>
<line fill="none" stroke="#000000" stroke-width="3.0561" stroke-linecap="round" stroke-miterlimit="10" x1="83.8" y1="409.6" x2="78.1" y2="425"/>
<polyline fill="#FFFFFF" stroke="#000000" stroke-width="3.0561" stroke-linecap="round" stroke-linejoin="round" stroke-miterlimit="10" points="
	95.4,323.3 72.6,273.7 171.6,273.7 148.7,323.3 "/>
<ellipse stroke="#000000" stroke-width="2.3352" stroke-linecap="round" stroke-miterlimit="10" cx="106.2" cy="390.2" rx="3.4" ry="2"/>
<ellipse stroke="#000000" stroke-width="2.3352" stroke-linecap="round" stroke-miterlimit="10" cx="137.3" cy="390.2" rx="3.4" ry="2"/>
<text transform="matrix(1 0 0 1 55.1509 510.1996)" font-family="'Montserrat-Bold'" font-size="20.2101">MakeMeCoffee!</text>
<text transform="matrix(1 0 0 1 1102.0146 353.1485)" font-family="'Montserrat-Bold'" font-size="20.2101">Share</text>
<text transform="matrix(1 0 0 1 1344.6967 354.6449)" font-family="'Montserrat-Bold'" font-size="21">Grind Coffee</text>
<text transform="matrix(1 0 0 1 1504.6205 307.7067)" font-family="'Montserrat-Bold'" font-size="21">?</text>
<g>
	<path fill="#42210B" stroke="#42210B" stroke-width="3" stroke-miterlimit="10" d="M1300.8,399.7c0,0-20.2,36.2,0,36.1
		C1300.8,435.9,1321.8,438.2,1300.8,399.7z"/>
	<path fill="none" stroke="#000000" stroke-width="3" stroke-miterlimit="10" d="M1295.8,399.7c0,0-20.2,36.2,0,36.1
		C1295.8,435.9,1316.8,438.2,1295.8,399.7z"/>
</g>
<text transform="matrix(1 0 0 1 1355.4701 424.1768)" font-family="'Montserrat-Bold'" font-size="21">Let Bloom</text>
<g>
	<path fill="#42210B" stroke="#42210B" stroke-width="3" stroke-miterlimit="10" d="M1300.8,469.3c0,0-20.2,36.2,0,36.1
		C1300.8,505.4,1321.8,507.8,1300.8,469.3z"/>
	<path fill="none" stroke="#000000" stroke-width="3" stroke-miterlimit="10" d="M1295.8,469.3c0,0-20.2,36.2,0,36.1
		C1295.8,505.4,1316.8,507.8,1295.8,469.3z"/>
</g>
<text transform="matrix(1 0 0 1 1350.934 493.7087)" font-family="'Montserrat-Bold'" font-size="21">Pour Water</text>
<g>
	<path fill="#42210B" stroke="#42210B" stroke-width="3" stroke-miterlimit="10" d="M1300.8,538.8c0,0-20.2,36.2,0,36.1
		C1300.8,574.9,1321.8,577.3,1300.8,538.8z"/>
	<path fill="none" stroke="#000000" stroke-width="3" stroke-miterlimit="10" d="M1295.8,538.8c0,0-20.2,36.2,0,36.1
		C1295.8,574.9,1316.8,577.3,1295.8,538.8z"/>
</g>
<text transform="matrix(1 0 0 1 1345.808 563.2406)" font-family="'Montserrat-Bold'" font-size="21">Pour More Water</text>
<text transform="matrix(1 0 0 1 1807.7986 1232.2155)"><tspan x="0" y="0" font-family="'Montserrat-Bold'" font-size="21">How much coffee </tspan><tspan x="20.2" y="25.2" font-family="'Montserrat-Bold'" font-size="21">do you want?</tspan></text>
<text transform="matrix(1 0 0 1 1835.9695 1760.2155)" font-family="'Montserrat-Bold'" font-size="21">You’ll need:</text>
<text transform="matrix(1 0 0 1 1841.0203 1792.2155)"><tspan x="0" y="0" font-family="'Montserrat-Bold'" font-size="21">15g coffee</tspan><tspan x="-3.2" y="25.2" font-family="'Montserrat-Bold'" font-size="21">400g water</tspan><tspan x="-12.1" y="50.4" font-family="'Montserrat-Bold'" font-size="21">(30g 1st pour</tspan><tspan x="-15.7" y="75.6" font-family="'Montserrat-Bold'" font-size="21">370 2nd pour)</tspan></text>
<text transform="matrix(1 0 0 1 1855.4988 1320.2155)" fill="#808080" font-family="'Montserrat-Bold'" font-size="21">ounces</text>
<text transform="matrix(1 0 0 1 55.1509 600.89)"><tspan x="0" y="0" font-family="'Montserrat-Bold'" font-size="20.2101">MakeMeCoffee!</tspan><tspan x="32.9" y="24.3" fill="#AAF2AD" font-family="'Montserrat-Bold'" font-size="20.2101">(please)</tspan></text>
<path fill="none" stroke="#000000" stroke-width="3.0561" stroke-miterlimit="10" d="M172.4,410.7c-10.7-21-13.8-29.6-13.8-29.6
	s-16.5-30.6-3.7-58.8c0,0,28.4-41.3-1.5-41.3h-63c-30,0-1.5,41.3-1.5,41.3c12.8,28.3-3.7,58.8-3.7,58.8s-3.1,8.7-13.8,29.6
	c-24.2,47.3,15.3,46.8,15.3,46.8h70.3C157.1,457.5,196.5,458,172.4,410.7z"/>
<g>
	<path fill="#C7B299" stroke="#000000" stroke-width="3.0561" stroke-miterlimit="10" d="M152.4,350.8c0,1.6,0.3,3,0.6,4.3
		c1.1,4.3,3.2,6.7,3.2,6.7c5.9,8.9,3.9,13,0.6,14.8c-3.4,1.8-8.2,1.5-8.2,1.5h-53c0,0-4.8,0.4-8.2-1.5c-3.4-1.8-5.3-5.9,0.6-14.8
		c0,0,2.1-2.5,3.2-6.7c0.3-1.3,0.5-2.7,0.6-4.3v-0.1c0-1.6-0.3-3-0.6-4.3c-1.1-4.3-3.2-6.7-3.2-6.7c-5.9-8.9-3.9-13-0.6-14.8
		c3.4-1.8,8.2-1.5,8.2-1.5h53c0,0,4.8-0.4,8.2,1.5c3.4,1.8,5.3,5.9-0.6,14.8c0,0-2.1,2.5-3.2,6.7c-0.3,1.3-0.5,2.7-0.6,4.3V350.8z"
		/>
</g>
<line fill="none" stroke="#000000" stroke-width="3.0561" stroke-miterlimit="10" x1="152.4" y1="350.6" x2="89.9" y2="350.6"/>
<circle fill="#C7B299" stroke="#000000" stroke-width="3.0561" stroke-miterlimit="10" cx="121.9" cy="350.7" r="7.4"/>
<path fill="none" stroke="#000000" stroke-width="3.0561" stroke-linecap="round" stroke-miterlimit="10" d="M114.6,350.7
	c0,0-12.2,16.3-7.6,43"/>
<path fill="none" stroke="#000000" stroke-width="3.0561" stroke-linecap="round" stroke-miterlimit="10" d="M129.6,350.7
	c0,0,12.2,16.3,7.6,43"/>
<path fill="#42210B" stroke="#42210B" stroke-width="3.0561" stroke-miterlimit="10" d="M978.5,301.5c24.2,47.3-15.3,46.8-15.3,46.8
	h-65.7c0,0-39.4,0.5-15.3-46.8H978.5z"/>
<line fill="none" stroke="#000000" stroke-width="3.0561" stroke-linecap="round" stroke-miterlimit="10" x1="889.9" y1="300.4" x2="884.3" y2="315.8"/>
<polyline fill="#FFFFFF" stroke="#000000" stroke-width="3.0561" stroke-linecap="round" stroke-linejoin="round" stroke-miterlimit="10" points="
	901.6,214.1 878.7,164.5 977.7,164.5 954.8,214.1 "/>
<ellipse stroke="#000000" stroke-width="2.3352" stroke-linecap="round" stroke-miterlimit="10" cx="912.4" cy="281" rx="3.4" ry="2"/>
<ellipse stroke="#000000" stroke-width="2.3352" stroke-linecap="round" stroke-miterlimit="10" cx="943.4" cy="281" rx="3.4" ry="2"/>
<path fill="none" stroke="#000000" stroke-width="3.0561" stroke-miterlimit="10" d="M978.5,301.5c-10.7-21-13.8-29.6-13.8-29.6
	s-16.5-30.6-3.7-58.8c0,0,28.4-41.3-1.5-41.3h-63c-30,0-1.5,41.3-1.5,41.3c12.8,28.3-3.7,58.8-3.7,58.8s-3.1,8.7-13.8,29.6
	c-24.2,47.3,15.3,46.8,15.3,46.8h70.3C963.2,348.3,1002.7,348.8,978.5,301.5z"/>
<g>
	<path fill="#C7B299" stroke="#000000" stroke-width="3.0561" stroke-miterlimit="10" d="M958.5,241.6c0,1.6,0.3,3,0.6,4.3
		c1.1,4.3,3.2,6.7,3.2,6.7c5.9,8.9,3.9,13,0.6,14.8c-3.4,1.8-8.2,1.5-8.2,1.5h-53c0,0-4.8,0.4-8.2-1.5c-3.4-1.8-5.3-5.9,0.6-14.8
		c0,0,2.1-2.5,3.2-6.7c0.3-1.3,0.5-2.7,0.6-4.3v-0.1c0-1.6-0.3-3-0.6-4.3c-1.1-4.3-3.2-6.7-3.2-6.7c-5.9-8.9-3.9-13-0.6-14.8
		c3.4-1.8,8.2-1.5,8.2-1.5h53c0,0,4.8-0.4,8.2,1.5c3.4,1.8,5.3,5.9-0.6,14.8c0,0-2.1,2.5-3.2,6.7c-0.3,1.3-0.5,2.7-0.6,4.3V241.6z"
		/>
</g>
<line fill="none" stroke="#000000" stroke-width="3.0561" stroke-miterlimit="10" x1="958.5" y1="241.4" x2="896.1" y2="241.4"/>
<circle fill="#C7B299" stroke="#000000" stroke-width="3.0561" stroke-miterlimit="10" cx="928.1" cy="241.5" r="7.4"/>
<g>
	
		<circle fill="none" stroke="#000000" stroke-width="2.9848" stroke-linejoin="round" stroke-miterlimit="10" cx="964.9" cy="400" r="9.6"/>
	<circle cx="964.9" cy="400" r="3.6"/>
</g>
<path fill="none" stroke="#000000" stroke-width="3.0561" stroke-linecap="round" stroke-miterlimit="10" d="M920.7,241.5
	c0,0-12.2,16.3-7.6,43"/>
<path fill="none" stroke="#000000" stroke-width="3.0561" stroke-linecap="round" stroke-miterlimit="10" d="M935.7,241.5
	c0,0,12.2,16.3,7.6,43"/>
<circle fill="#DEEFD4" stroke="#000000" stroke-width="3" stroke-miterlimit="10" cx="510.2" cy="348.1" r="104.5"/>
<path fill="#42210B" stroke="#42210B" stroke-width="2.7761" stroke-miterlimit="10" d="M555.2,390.8c21.9,43-13.9,42.5-13.9,42.5
	h-59.7c0,0-35.8,0.5-13.9-42.5H555.2z"/>
<line fill="none" stroke="#000000" stroke-width="2.7761" stroke-linecap="round" stroke-miterlimit="10" x1="474.7" y1="389.8" x2="469.6" y2="403.8"/>
<polyline fill="#FFFFFF" stroke="#000000" stroke-width="2.7761" stroke-linecap="round" stroke-linejoin="round" stroke-miterlimit="10" points="
	485.3,311.4 464.5,266.4 554.5,266.4 533.7,311.4 "/>
<ellipse stroke="#000000" stroke-width="2.1212" stroke-linecap="round" stroke-miterlimit="10" cx="495.1" cy="372.2" rx="3.1" ry="1.8"/>
<ellipse stroke="#000000" stroke-width="2.1212" stroke-linecap="round" stroke-miterlimit="10" cx="523.3" cy="372.2" rx="3.1" ry="1.8"/>
<path fill="none" stroke="#000000" stroke-width="2.7761" stroke-miterlimit="10" d="M555.2,390.8c-9.7-19-12.5-26.9-12.5-26.9
	s-15-27.8-3.3-53.4c0,0,25.8-37.5-1.4-37.5h-57.2c-27.2,0-1.4,37.5-1.4,37.5c11.7,25.7-3.3,53.4-3.3,53.4s-2.8,7.9-12.5,26.9
	c-21.9,43,13.9,42.5,13.9,42.5h63.8C541.3,433.3,577.1,433.8,555.2,390.8z"/>
<g>
	<path fill="#C7B299" stroke="#000000" stroke-width="3.0561" stroke-miterlimit="10" d="M537,336.4c0,1.4,0.2,2.8,0.5,3.9
		c1,3.9,2.9,6.1,2.9,6.1c5.3,8.1,3.6,11.8,0.5,13.5c-3.1,1.7-7.5,1.3-7.5,1.3h-48.2c0,0-4.4,0.3-7.5-1.3s-4.8-5.4,0.5-13.5
		c0,0,1.9-2.3,2.9-6.1c0.3-1.2,0.5-2.5,0.5-3.9v-0.1c0-1.4-0.2-2.8-0.5-3.9c-1-3.9-2.9-6.1-2.9-6.1c-5.3-8.1-3.6-11.8-0.5-13.5
		c3.1-1.7,7.5-1.3,7.5-1.3h48.2c0,0,4.4-0.3,7.5,1.3c3.1,1.7,4.8,5.4-0.5,13.5c0,0-1.9,2.3-2.9,6.1c-0.3,1.2-0.5,2.5-0.5,3.9V336.4z
		"/>
</g>
<line fill="none" stroke="#000000" stroke-width="2.7761" stroke-miterlimit="10" x1="537" y1="336.2" x2="480.3" y2="336.2"/>
<circle fill="#FFFFFF" stroke="#000000" stroke-width="2.7761" stroke-miterlimit="10" cx="509.4" cy="336.3" r="6.7"/>
<path fill="none" stroke="#000000" stroke-width="2.7761" stroke-linecap="round" stroke-miterlimit="10" d="M502.7,336.3
	c0,0-11.1,14.8-6.9,39.1"/>
<path fill="none" stroke="#000000" stroke-width="2.7761" stroke-linecap="round" stroke-miterlimit="10" d="M516.3,336.3
	c0,0,11.1,14.8,6.9,39.1"/>
<circle fill="#DEEFD4" cx="1886.7" cy="216.6" r="134.5"/>
<path fill="#42210B" stroke="#42210B" stroke-width="2.7761" stroke-miterlimit="10" d="M1931.7,277.8c21.9,43-13.9,42.5-13.9,42.5
	h-59.7c0,0-35.8,0.5-13.9-42.5H1931.7z"/>
<line fill="none" stroke="#000000" stroke-width="2.7761" stroke-linecap="round" stroke-miterlimit="10" x1="1851.2" y1="276.8" x2="1846.1" y2="290.8"/>
<polyline fill="#FFFFFF" stroke="#000000" stroke-width="2.7761" stroke-linecap="round" stroke-linejoin="round" stroke-miterlimit="10" points="
	1861.8,198.4 1841,153.4 1931,153.4 1910.2,198.4 "/>
<ellipse stroke="#000000" stroke-width="2.1212" stroke-linecap="round" stroke-miterlimit="10" cx="1871.6" cy="259.1" rx="3.1" ry="1.8"/>
<ellipse stroke="#000000" stroke-width="2.1212" stroke-linecap="round" stroke-miterlimit="10" cx="1899.8" cy="259.1" rx="3.1" ry="1.8"/>
<path fill="none" stroke="#000000" stroke-width="2.7761" stroke-miterlimit="10" d="M1931.7,277.8c-9.7-19-12.5-26.9-12.5-26.9
	s-15-27.8-3.3-53.4c0,0,25.8-37.5-1.4-37.5h-57.2c-27.2,0-1.4,37.5-1.4,37.5c11.7,25.7-3.3,53.4-3.3,53.4s-2.8,7.9-12.5,26.9
	c-21.9,43,13.9,42.5,13.9,42.5h63.8C1917.8,320.3,1953.6,320.8,1931.7,277.8z"/>
<g>
	<path fill="#C7B299" stroke="#000000" stroke-width="3.0561" stroke-miterlimit="10" d="M1913.5,223.3c0,1.4,0.2,2.8,0.5,3.9
		c1,3.9,2.9,6.1,2.9,6.1c5.3,8.1,3.6,11.8,0.5,13.5c-3.1,1.7-7.5,1.3-7.5,1.3h-48.2c0,0-4.4,0.3-7.5-1.3c-3.1-1.7-4.8-5.4,0.5-13.5
		c0,0,1.9-2.3,2.9-6.1c0.3-1.2,0.5-2.5,0.5-3.9v-0.1c0-1.4-0.2-2.8-0.5-3.9c-1-3.9-2.9-6.1-2.9-6.1c-5.3-8.1-3.6-11.8-0.5-13.5
		c3.1-1.7,7.5-1.3,7.5-1.3h48.2c0,0,4.4-0.3,7.5,1.3c3.1,1.7,4.8,5.4-0.5,13.5c0,0-1.9,2.3-2.9,6.1c-0.3,1.2-0.5,2.5-0.5,3.9V223.3z
		"/>
</g>
<line fill="none" stroke="#000000" stroke-width="2.7761" stroke-miterlimit="10" x1="1913.5" y1="223.2" x2="1856.8" y2="223.2"/>
<circle fill="#FFFFFF" stroke="#000000" stroke-width="2.7761" stroke-miterlimit="10" cx="1885.9" cy="223.3" r="6.7"/>
<path fill="none" stroke="#000000" stroke-width="2.7761" stroke-linecap="round" stroke-miterlimit="10" d="M1879.2,223.3
	c0,0-11.1,14.8-6.9,39.1"/>
<path fill="none" stroke="#000000" stroke-width="2.7761" stroke-linecap="round" stroke-miterlimit="10" d="M1892.8,223.3
	c0,0,11.1,14.8,6.9,39.1"/>
<path fill="#FFFFFF" stroke="#000000" stroke-width="2.8462" stroke-linejoin="round" stroke-miterlimit="10" d="M955.2,390.4
	c0,23.9-16.8,43.3-37.6,43.3c-20.8,0-37.6-19.4-37.6-43.3H955.2z"/>
<path fill="#FFFFFF" stroke="#000000" stroke-width="3.0561" stroke-miterlimit="10" d="M838.5,342.1h-44.7c-0.9,0-1.7-0.8-1.7-1.7
	v-51.6c0-0.9,0.8-1.7,1.7-1.7h44.7c0.9,0,1.7,0.8,1.7,1.7v51.6C840.2,341.3,839.4,342.1,838.5,342.1z"/>
<g>
	<g>
		<circle fill="#FFFFFF" stroke="#000000" stroke-width="3.034" stroke-miterlimit="10" cx="1082.9" cy="480.3" r="11.6"/>
		<circle fill="#FFFFFF" stroke="#000000" stroke-width="3.034" stroke-miterlimit="10" cx="1082.9" cy="480.3" r="4.4"/>
	</g>
	<path fill="#FFFFFF" stroke="#000000" stroke-width="3.034" stroke-miterlimit="10" d="M1092.9,510h44.4c0.9,0,1.7-0.8,1.7-1.7
		v-51.2c0-0.9-0.8-1.7-1.7-1.7h-44.4c-0.9,0-1.7,0.8-1.7,1.7v51.2C1091.2,509.3,1092,510,1092.9,510z"/>
</g>
<circle fill="#DEEFD4" cx="1125.8" cy="214.1" r="80.3"/>
<g>
	<g>
		<circle fill="#FFFFFF" stroke="#000000" stroke-width="2.8651" stroke-miterlimit="10" cx="1187" cy="212.1" r="11"/>
		<circle fill="#FFFFFF" stroke="#000000" stroke-width="2.8651" stroke-miterlimit="10" cx="1187" cy="212.1" r="4.1"/>
	</g>
	<path fill="#FFFFFF" stroke="#000000" stroke-width="2.8651" stroke-miterlimit="10" d="M1177.5,240.2h-41.9
		c-0.9,0-1.6-0.7-1.6-1.6v-48.3c0-0.9,0.7-1.6,1.6-1.6h41.9c0.9,0,1.6,0.7,1.6,1.6v48.3C1179.1,239.5,1178.4,240.2,1177.5,240.2z"/>
</g>
<g>
	<g>
		<circle fill="#FFFFFF" stroke="#000000" stroke-width="2.8651" stroke-miterlimit="10" cx="1065.3" cy="212.1" r="11"/>
		<circle fill="#FFFFFF" stroke="#000000" stroke-width="2.8651" stroke-miterlimit="10" cx="1065.3" cy="212.1" r="4.1"/>
	</g>
	<path fill="#FFFFFF" stroke="#000000" stroke-width="2.8651" stroke-miterlimit="10" d="M1074.8,240.2h41.9c0.9,0,1.6-0.7,1.6-1.6
		v-48.3c0-0.9-0.7-1.6-1.6-1.6h-41.9c-0.9,0-1.6,0.7-1.6,1.6v48.3C1073.2,239.5,1073.9,240.2,1074.8,240.2z"/>
</g>
<g>
	<g>
		<circle fill="#FFFFFF" stroke="#000000" stroke-width="3.034" stroke-miterlimit="10" cx="1105.2" cy="489.4" r="11.6"/>
		<circle fill="#FFFFFF" stroke="#000000" stroke-width="3.034" stroke-miterlimit="10" cx="1105.2" cy="489.4" r="4.4"/>
	</g>
	<path fill="#FFFFFF" stroke="#000000" stroke-width="3.034" stroke-miterlimit="10" d="M1115.3,519.2h44.4c0.9,0,1.7-0.8,1.7-1.7
		v-51.2c0-0.9-0.8-1.7-1.7-1.7h-44.4c-0.9,0-1.7,0.8-1.7,1.7v51.2C1113.6,518.4,1114.4,519.2,1115.3,519.2z"/>
</g>
<g>
	<g>
		<circle fill="#FFFFFF" stroke="#000000" stroke-width="1.8903" stroke-miterlimit="10" cx="1272.9" cy="300" r="7.2"/>
		<circle fill="#FFFFFF" stroke="#000000" stroke-width="1.8903" stroke-miterlimit="10" cx="1272.9" cy="300" r="2.7"/>
	</g>
	<path fill="#FFFFFF" stroke="#000000" stroke-width="1.8903" stroke-miterlimit="10" d="M1279.2,318.5h27.7c0.6,0,1.1-0.5,1.1-1.1
		v-31.9c0-0.6-0.5-1.1-1.1-1.1h-27.7c-0.6,0-1.1,0.5-1.1,1.1v31.9C1278.2,318,1278.6,318.5,1279.2,318.5z"/>
</g>
<path fill="#42210B" stroke="#42210B" stroke-width="4" stroke-linecap="round" stroke-linejoin="round" stroke-miterlimit="10" d="
	M879.4,580.7c-19.8,12.8-35.2,0-35.2,0c-19.8,12.8-35.2,0-35.2,0v59.7h70.3V580.7z"/>
<g>
	<rect x="1330.4" y="130.7" fill="none" width="71" height="90"/>
	
		<path fill="#42210B" stroke="#42210B" stroke-width="4" stroke-linecap="round" stroke-linejoin="round" stroke-miterlimit="10" d="
		M1472.1,145.9c-19.8,12.8-35.2,0-35.2,0c-19.8,12.8-35.2,0-35.2,0v59.7h70.3V145.9z"/>
	
		<path fill="#42210B" stroke="#42210B" stroke-width="4" stroke-linecap="round" stroke-linejoin="round" stroke-miterlimit="10" d="
		M1401.1,145.9c-19.8,12.8-35.2,0-35.2,0c-19.8,12.8-35.2,0-35.2,0v59.7h70.3V145.9z"/>
	
		<path fill="#42210B" stroke="#42210B" stroke-width="4" stroke-linecap="round" stroke-linejoin="round" stroke-miterlimit="10" d="
		M1330.1,145.9c-19.8,12.8-35.2,0-35.2,0c-19.8,12.8-35.2,0-35.2,0v59.7h70.3V145.9z"/>
</g>
<g>
	<rect x="1794.3" y="-145.2" fill="none" width="71" height="90"/>
	
		<path fill="#42210B" stroke="#42210B" stroke-width="4" stroke-linecap="round" stroke-linejoin="round" stroke-miterlimit="10" d="
		M1936-130c-19.8,12.8-35.2,0-35.2,0c-19.8,12.8-35.2,0-35.2,0v59.7h70.3V-130z"/>
	
		<path fill="#42210B" stroke="#42210B" stroke-width="4" stroke-linecap="round" stroke-linejoin="round" stroke-miterlimit="10" d="
		M1865-130c-19.8,12.8-35.2,0-35.2,0c-19.8,12.8-35.2,0-35.2,0v59.7h70.3V-130z"/>
	
		<path fill="#42210B" stroke="#42210B" stroke-width="4" stroke-linecap="round" stroke-linejoin="round" stroke-miterlimit="10" d="
		M1794-130c-19.8,12.8-35.2,0-35.2,0c-19.8,12.8-35.2,0-35.2,0v59.7h70.3V-130z"/>
</g>
<g>
	<rect x="2006.6" y="-145.2" fill="none" width="71" height="90"/>
	
		<path fill="#42210B" stroke="#42210B" stroke-width="4" stroke-linecap="round" stroke-linejoin="round" stroke-miterlimit="10" d="
		M2077.3-130c-19.8,12.8-35.2,0-35.2,0c-19.8,12.8-35.2,0-35.2,0v59.7h70.3V-130z"/>
	
		<path fill="#42210B" stroke="#42210B" stroke-width="4" stroke-linecap="round" stroke-linejoin="round" stroke-miterlimit="10" d="
		M2006.3-130c-19.8,12.8-35.2,0-35.2,0c-19.8,12.8-35.2,0-35.2,0v59.7h70.3V-130z"/>
</g>
<pattern  id="SVGID_2_" xlink:href="#New_Pattern_Swatch_3" patternTransform="matrix(1 0 0 1 0 -30.2846)">
</pattern>
<rect x="1248.9" y="590.6" fill="url(#SVGID_2_)" width="290" height="63.3"/>
<rect x="-1319.1" y="-588.1" fill="#FFFFFF" stroke="#FFFFFF" stroke-width="3" stroke-miterlimit="10" width="1024" height="1024"/>
<circle fill="#DEEFD4" cx="-807.1" cy="-76.1" r="400.5"/>
<path fill="#42210B" stroke="#42210B" stroke-width="34.9783" stroke-miterlimit="10" d="M-769.3-286.9c0,0-236.1,421.6,0,421.3
	C-769.3,134.4-524.5,162-769.3-286.9z"/>
<path fill="none" stroke="#000000" stroke-width="34.9783" stroke-miterlimit="10" d="M-827.6-286.9c0,0-236.1,421.6,0,421.3
	C-827.6,134.4-582.7,162-827.6-286.9z"/>
<text transform="matrix(1 0 0 1 758.6552 -322.1095)"><tspan x="0" y="0" font-family="'Montserrat-Bold'" font-size="50">xlarge (xhdpi): at least 960 x 720</tspan><tspan x="23.1" y="60" font-family="'Montserrat-Bold'" font-size="50">large (hdpi): at least 640 x 480</tspan><tspan x="-19.2" y="120" font-family="'Montserrat-Bold'" font-size="50">medium (mdpi): at least 470 x 320</tspan><tspan x="29.1" y="180" font-family="'Montserrat-Bold'" font-size="50">small (ldpi): at least 426 x 320</tspan></text>
<g>
	<path fill="#42210B" stroke="#42210B" stroke-width="2.5576" stroke-miterlimit="10" d="M1889.9,107.3c0,0-17.3,30.8,0,30.8
		C1889.9,138.2,1907.8,140.2,1889.9,107.3z"/>
	<path fill="none" stroke="#000000" stroke-width="2.5576" stroke-miterlimit="10" d="M1885.7,107.3c0,0-17.3,30.8,0,30.8
		C1885.7,138.2,1903.6,140.2,1885.7,107.3z"/>
</g>
<circle fill="#DEEFD4" cx="2351.9" cy="138.8" r="212.3"/>
<path fill="#42210B" stroke="#42210B" stroke-width="4.3821" stroke-miterlimit="10" d="M2422.8,235.4
	c34.6,67.9-21.9,67.1-21.9,67.1h-94.2c0,0-56.6,0.8-21.9-67.1H2422.8z"/>
<line fill="none" stroke="#000000" stroke-width="4.3821" stroke-linecap="round" stroke-miterlimit="10" x1="2295.9" y1="233.8" x2="2287.7" y2="255.9"/>
<polyline fill="#FFFFFF" stroke="#000000" stroke-width="4.3821" stroke-linecap="round" stroke-linejoin="round" stroke-miterlimit="10" points="
	2312.5,110 2279.7,39 2421.7,39 2388.9,110 "/>
<ellipse stroke="#000000" stroke-width="3.3483" stroke-linecap="round" stroke-miterlimit="10" cx="2328" cy="206" rx="4.8" ry="2.8"/>
<ellipse stroke="#000000" stroke-width="3.3483" stroke-linecap="round" stroke-miterlimit="10" cx="2372.5" cy="206" rx="4.8" ry="2.8"/>
<path fill="none" stroke="#000000" stroke-width="4.3821" stroke-miterlimit="10" d="M2422.8,235.4c-15.3-30.1-19.7-42.5-19.7-42.5
	s-23.7-43.8-5.3-84.4c0,0,40.8-59.2-2.2-59.2h-90.3c-42.9,0-2.2,59.2-2.2,59.2c18.4,40.5-5.3,84.4-5.3,84.4s-4.4,12.4-19.7,42.5
	c-34.6,67.9,21.9,67.1,21.9,67.1h100.8C2400.9,302.5,2457.5,303.3,2422.8,235.4z"/>
<g>
	<path fill="#C7B299" stroke="#000000" stroke-width="4.8242" stroke-miterlimit="10" d="M2394.2,149.5c0.1,2.3,0.4,4.3,0.8,6.2
		c1.5,6.1,4.5,9.7,4.5,9.7c8.4,12.8,5.7,18.6,0.8,21.3s-11.8,2.1-11.8,2.1h-76c0,0-6.9,0.5-11.8-2.1s-7.6-8.5,0.8-21.3
		c0,0,3-3.6,4.5-9.7c0.5-1.8,0.8-3.9,0.8-6.2v-0.2c-0.1-2.3-0.4-4.3-0.8-6.2c-1.5-6.1-4.5-9.7-4.5-9.7c-8.4-12.8-5.7-18.6-0.8-21.3
		c4.8-2.6,11.8-2.1,11.8-2.1h76c0,0,6.9-0.5,11.8,2.1c4.8,2.6,7.6,8.5-0.8,21.3c0,0-3,3.6-4.5,9.7c-0.5,1.8-0.8,3.9-0.8,6.2V149.5z"
		/>
</g>
<line fill="none" stroke="#000000" stroke-width="4.3821" stroke-miterlimit="10" x1="2394.2" y1="149.3" x2="2304.6" y2="149.3"/>
<circle fill="#FFFFFF" stroke="#000000" stroke-width="4.3821" stroke-miterlimit="10" cx="2350.5" cy="149.4" r="10.6"/>
<path fill="none" stroke="#000000" stroke-width="4.3821" stroke-linecap="round" stroke-miterlimit="10" d="M2339.9,149.4
	c0,0-17.5,23.3-10.9,61.6"/>
<path fill="none" stroke="#000000" stroke-width="4.3821" stroke-linecap="round" stroke-miterlimit="10" d="M2361.5,149.4
	c0,0,17.5,23.3,10.9,61.6"/>
<g>
	<path fill="#42210B" stroke="#42210B" stroke-width="4.0372" stroke-miterlimit="10" d="M2357-33.6c0,0-27.3,48.7,0,48.6
		C2357,15,2385.2,18.2,2357-33.6z"/>
	<path fill="none" stroke="#000000" stroke-width="4.0372" stroke-miterlimit="10" d="M2350.2-33.6c0,0-27.3,48.7,0,48.6
		C2350.2,15,2378.5,18.2,2350.2-33.6z"/>
</g>
<circle fill="#DEEFD4" cx="2471.1" cy="978.9" r="316.9"/>
<g>
	<path fill="#42210B" stroke="#42210B" stroke-width="6.5418" stroke-miterlimit="10" d="M2577,1123.2
		c51.7,101.3-32.7,100.2-32.7,100.2h-140.6c0,0-84.4,1.2-32.7-100.2H2577z"/>
	
		<line fill="none" stroke="#000000" stroke-width="6.5418" stroke-linecap="round" stroke-miterlimit="10" x1="2387.5" y1="1120.8" x2="2375.3" y2="1153.8"/>
	
		<polyline fill="#FFFFFF" stroke="#000000" stroke-width="6.5418" stroke-linecap="round" stroke-linejoin="round" stroke-miterlimit="10" points="
		2412.3,936.1 2363.4,830 2575.3,830 2526.4,936.1 	"/>
	
		<ellipse stroke="#000000" stroke-width="4.9985" stroke-linecap="round" stroke-miterlimit="10" cx="2435.5" cy="1079.3" rx="7.2" ry="4.2"/>
	
		<ellipse stroke="#000000" stroke-width="4.9985" stroke-linecap="round" stroke-miterlimit="10" cx="2502" cy="1079.3" rx="7.2" ry="4.2"/>
	<path fill="none" stroke="#000000" stroke-width="6.5418" stroke-miterlimit="10" d="M2577,1123.2c-22.9-44.9-29.4-63.4-29.4-63.4
		s-35.3-65.4-7.8-125.9c0,0,60.8-88.3-3.3-88.3h-134.8c-64.1,0-3.3,88.3-3.3,88.3c27.5,60.5-7.8,125.9-7.8,125.9
		s-6.5,18.5-29.4,63.4c-51.7,101.3,32.7,100.2,32.7,100.2h150.5C2544.3,1223.3,2628.8,1224.5,2577,1123.2z"/>
	<g>
		<path fill="#C7B299" stroke="#000000" stroke-width="7.2017" stroke-miterlimit="10" d="M2534.2,994.9c0.1,3.4,0.6,6.5,1.2,9.2
			c2.2,9.1,6.7,14.4,6.7,14.4c12.5,19.1,8.4,27.8,1.2,31.8s-17.6,3.1-17.6,3.1h-113.5c0,0-10.4,0.8-17.6-3.1s-11.3-12.7,1.2-31.8
			c0,0,4.5-5.3,6.7-14.4c0.7-2.7,1.1-5.8,1.2-9.2v-0.3c-0.1-3.4-0.6-6.5-1.2-9.2c-2.2-9.1-6.7-14.4-6.7-14.4
			c-12.5-19.1-8.4-27.8-1.2-31.8c7.2-4,17.6-3.1,17.6-3.1h113.5c0,0,10.4-0.8,17.6,3.1c7.2,4,11.3,12.7-1.2,31.8
			c0,0-4.5,5.3-6.7,14.4c-0.7,2.7-1.1,5.8-1.2,9.2V994.9z"/>
	</g>
	<line fill="none" stroke="#000000" stroke-width="6.5418" stroke-miterlimit="10" x1="2534.2" y1="994.6" x2="2400.6" y2="994.6"/>
	<circle fill="#FFFFFF" stroke="#000000" stroke-width="6.5418" stroke-miterlimit="10" cx="2469.1" cy="994.8" r="15.8"/>
	<path fill="none" stroke="#000000" stroke-width="6.5418" stroke-linecap="round" stroke-miterlimit="10" d="M2453.3,994.8
		c0,0-26.1,34.8-16.3,92"/>
	<path fill="none" stroke="#000000" stroke-width="6.5418" stroke-linecap="round" stroke-miterlimit="10" d="M2485.5,994.8
		c0,0,26.1,34.8,16.3,92"/>
</g>
<g>
	<path fill="#42210B" stroke="#42210B" stroke-width="6.0269" stroke-miterlimit="10" d="M2478.7,721.6c0,0-40.7,72.6,0,72.6
		C2478.7,794.2,2520.9,798.9,2478.7,721.6z"/>
	<path fill="none" stroke="#000000" stroke-width="6.0269" stroke-miterlimit="10" d="M2468.6,721.6c0,0-40.7,72.6,0,72.6
		C2468.6,794.2,2510.8,798.9,2468.6,721.6z"/>
</g>
<circle fill="#DEEFD4" cx="1884.4" cy="1615.7" r="101.6"/>
<g>
	<path fill="#42210B" stroke="#42210B" stroke-width="1.8288" stroke-miterlimit="10" d="M1913.9,1642.8c14.5,28.3-9.1,28-9.1,28
		h-39.3c0,0-23.6,0.3-9.1-28H1913.9z"/>
	
		<line fill="none" stroke="#000000" stroke-width="1.8288" stroke-linecap="round" stroke-miterlimit="10" x1="1860.9" y1="1642.1" x2="1857.5" y2="1651.4"/>
	
		<polyline fill="#FFFFFF" stroke="#000000" stroke-width="1.8288" stroke-linecap="round" stroke-linejoin="round" stroke-miterlimit="10" points="
		1867.8,1590.5 1854.2,1560.8 1913.4,1560.8 1899.7,1590.5 	"/>
	
		<ellipse stroke="#000000" stroke-width="1.3974" stroke-linecap="round" stroke-miterlimit="10" cx="1874.3" cy="1630.5" rx="2" ry="1.2"/>
	
		<ellipse stroke="#000000" stroke-width="1.3974" stroke-linecap="round" stroke-miterlimit="10" cx="1892.9" cy="1630.5" rx="2" ry="1.2"/>
	<path fill="none" stroke="#000000" stroke-width="1.8288" stroke-miterlimit="10" d="M1913.9,1642.8c-6.4-12.5-8.2-17.7-8.2-17.7
		s-9.9-18.3-2.2-35.2c0,0,17-24.7-0.9-24.7h-37.7c-17.9,0-0.9,24.7-0.9,24.7c7.7,16.9-2.2,35.2-2.2,35.2s-1.8,5.2-8.2,17.7
		c-14.5,28.3,9.1,28,9.1,28h42.1C1904.7,1670.8,1928.3,1671.1,1913.9,1642.8z"/>
	<g>
		<path fill="#C7B299" stroke="#000000" stroke-width="2.0133" stroke-miterlimit="10" d="M1901.9,1606.9c0,0.9,0.2,1.8,0.3,2.6
			c0.6,2.6,1.9,4,1.9,4c3.5,5.3,2.4,7.8,0.3,8.9s-4.9,0.9-4.9,0.9h-31.7c0,0-2.9,0.2-4.9-0.9s-3.2-3.5,0.3-8.9c0,0,1.3-1.5,1.9-4
			c0.2-0.8,0.3-1.6,0.3-2.6v-0.1c0-0.9-0.2-1.8-0.3-2.6c-0.6-2.6-1.9-4-1.9-4c-3.5-5.3-2.4-7.8-0.3-8.9c2-1.1,4.9-0.9,4.9-0.9h31.7
			c0,0,2.9-0.2,4.9,0.9c2,1.1,3.2,3.5-0.3,8.9c0,0-1.3,1.5-1.9,4C1902.1,1605,1901.9,1605.9,1901.9,1606.9L1901.9,1606.9z"/>
	</g>
	
		<line fill="none" stroke="#000000" stroke-width="1.8288" stroke-miterlimit="10" x1="1901.9" y1="1606.9" x2="1864.6" y2="1606.9"/>
	<circle fill="#FFFFFF" stroke="#000000" stroke-width="1.8288" stroke-miterlimit="10" cx="1883.7" cy="1606.9" r="4.4"/>
	<path fill="none" stroke="#000000" stroke-width="1.8288" stroke-linecap="round" stroke-miterlimit="10" d="M1879.3,1606.9
		c0,0-7.3,9.7-4.6,25.7"/>
	<path fill="none" stroke="#000000" stroke-width="1.8288" stroke-linecap="round" stroke-miterlimit="10" d="M1888.3,1606.9
		c0,0,7.3,9.7,4.6,25.7"/>
</g>
<g>
	<path fill="#42210B" stroke="#42210B" stroke-width="1.6848" stroke-miterlimit="10" d="M1886.4,1530.5c0,0-11.4,20.3,0,20.3
		C1886.4,1550.8,1898.2,1552.2,1886.4,1530.5z"/>
	<path fill="none" stroke="#000000" stroke-width="1.6848" stroke-miterlimit="10" d="M1883.6,1530.5c0,0-11.4,20.3,0,20.3
		C1883.6,1550.8,1895.4,1552.2,1883.6,1530.5z"/>
</g>
<circle fill="#DEEFD4" cx="1886.7" cy="727.9" r="134.5"/>
<path fill="#42210B" stroke="#42210B" stroke-width="2.7761" stroke-miterlimit="10" d="M1931.7,789.1c21.9,43-13.9,42.5-13.9,42.5
	h-59.7c0,0-35.8,0.5-13.9-42.5H1931.7z"/>
<line fill="none" stroke="#000000" stroke-width="2.7761" stroke-linecap="round" stroke-miterlimit="10" x1="1851.2" y1="788.1" x2="1846.1" y2="802.1"/>
<polyline fill="#FFFFFF" stroke="#000000" stroke-width="2.7761" stroke-linecap="round" stroke-linejoin="round" stroke-miterlimit="10" points="
	1861.8,709.7 1841,664.7 1931,664.7 1910.2,709.7 "/>
<ellipse stroke="#000000" stroke-width="2.1212" stroke-linecap="round" stroke-miterlimit="10" cx="1871.6" cy="770.5" rx="3.1" ry="1.8"/>
<ellipse stroke="#000000" stroke-width="2.1212" stroke-linecap="round" stroke-miterlimit="10" cx="1899.8" cy="770.5" rx="3.1" ry="1.8"/>
<path fill="none" stroke="#000000" stroke-width="2.7761" stroke-miterlimit="10" d="M1931.7,789.1c-9.7-19-12.5-26.9-12.5-26.9
	s-15-27.8-3.3-53.4c0,0,25.8-37.5-1.4-37.5h-57.2c-27.2,0-1.4,37.5-1.4,37.5c11.7,25.7-3.3,53.4-3.3,53.4s-2.8,7.9-12.5,26.9
	c-21.9,43,13.9,42.5,13.9,42.5h63.8C1917.8,831.6,1953.6,832.1,1931.7,789.1z"/>
<g>
	<path fill="#C7B299" stroke="#000000" stroke-width="3.0561" stroke-miterlimit="10" d="M1913.5,734.7c0,1.4,0.2,2.8,0.5,3.9
		c1,3.9,2.9,6.1,2.9,6.1c5.3,8.1,3.6,11.8,0.5,13.5s-7.5,1.3-7.5,1.3h-48.2c0,0-4.4,0.3-7.5-1.3s-4.8-5.4,0.5-13.5
		c0,0,1.9-2.3,2.9-6.1c0.3-1.2,0.5-2.5,0.5-3.9v-0.1c0-1.4-0.2-2.8-0.5-3.9c-1-3.9-2.9-6.1-2.9-6.1c-5.3-8.1-3.6-11.8-0.5-13.5
		c3.1-1.7,7.5-1.3,7.5-1.3h48.2c0,0,4.4-0.3,7.5,1.3c3.1,1.7,4.8,5.4-0.5,13.5c0,0-1.9,2.3-2.9,6.1c-0.3,1.2-0.5,2.5-0.5,3.9V734.7z
		"/>
</g>
<line fill="none" stroke="#000000" stroke-width="2.7761" stroke-miterlimit="10" x1="1913.5" y1="734.5" x2="1856.8" y2="734.5"/>
<circle fill="#FFFFFF" stroke="#000000" stroke-width="2.7761" stroke-miterlimit="10" cx="1885.9" cy="734.6" r="6.7"/>
<path fill="none" stroke="#000000" stroke-width="2.7761" stroke-linecap="round" stroke-miterlimit="10" d="M1879.2,734.6
	c0,0-11.1,14.8-6.9,39.1"/>
<path fill="none" stroke="#000000" stroke-width="2.7761" stroke-linecap="round" stroke-miterlimit="10" d="M1892.8,734.6
	c0,0,11.1,14.8,6.9,39.1"/>
<g>
	<path fill="#42210B" stroke="#42210B" stroke-width="2.5576" stroke-miterlimit="10" d="M1889.9,618.7c0,0-17.3,30.8,0,30.8
		C1889.9,649.5,1907.8,651.5,1889.9,618.7z"/>
	<path fill="none" stroke="#000000" stroke-width="2.5576" stroke-miterlimit="10" d="M1885.7,618.7c0,0-17.3,30.8,0,30.8
		C1885.7,649.5,1903.6,651.5,1885.7,618.7z"/>
</g>
<g>
	<g>
		<circle fill="#FFFFFF" stroke="#000000" stroke-width="3.9002" stroke-miterlimit="10" cx="1925.1" cy="1124.7" r="14.9"/>
		<circle fill="#FFFFFF" stroke="#000000" stroke-width="3.9002" stroke-miterlimit="10" cx="1925.1" cy="1124.7" r="5.6"/>
	</g>
	<path fill="#FFFFFF" stroke="#000000" stroke-width="3.9002" stroke-miterlimit="10" d="M1912.2,1163h-57.1c-1.2,0-2.2-1-2.2-2.2
		V1095c0-1.2,1-2.2,2.2-2.2h57.1c1.2,0,2.2,1,2.2,2.2v65.8C1914.4,1162,1913.4,1163,1912.2,1163z"/>
</g>
<g>
	<path fill="#42210B" stroke="#42210B" stroke-width="2.5576" stroke-miterlimit="10" d="M1887.7,1052.7c0,0-17.3,30.8,0,30.8
		C1887.7,1083.5,1905.6,1085.5,1887.7,1052.7z"/>
	<path fill="none" stroke="#000000" stroke-width="3" stroke-miterlimit="10" d="M1883.4,1052.7c0,0-17.3,30.8,0,30.8
		C1883.4,1083.5,1901.3,1085.5,1883.4,1052.7z"/>
</g>
<circle fill="#DEEFD4" cx="1593.5" cy="1113.9" r="76.8"/>
<g>
	<g>
		<circle fill="#FFFFFF" stroke="#000000" stroke-width="3.9002" stroke-miterlimit="10" cx="1631.1" cy="1124.7" r="14.9"/>
		<circle fill="#FFFFFF" stroke="#000000" stroke-width="3.9002" stroke-miterlimit="10" cx="1631.1" cy="1124.7" r="5.6"/>
	</g>
	<path fill="#FFFFFF" stroke="#000000" stroke-width="3.9002" stroke-miterlimit="10" d="M1618.2,1163h-57.1c-1.2,0-2.2-1-2.2-2.2
		V1095c0-1.2,1-2.2,2.2-2.2h57.1c1.2,0,2.2,1,2.2,2.2v65.8C1620.4,1162,1619.4,1163,1618.2,1163z"/>
</g>
<g>
	<path fill="#42210B" stroke="#42210B" stroke-width="2.5576" stroke-miterlimit="10" d="M1593.7,1052.7c0,0-17.3,30.8,0,30.8
		C1593.7,1083.5,1611.6,1085.5,1593.7,1052.7z"/>
	<path fill="none" stroke="#000000" stroke-width="3" stroke-miterlimit="10" d="M1589.4,1052.7c0,0-17.3,30.8,0,30.8
		C1589.4,1083.5,1607.3,1085.5,1589.4,1052.7z"/>
</g>
<circle fill="#DEEFD4" cx="1593.5" cy="1293" r="76.8"/>
<path fill="none" stroke="#000000" stroke-width="3" stroke-miterlimit="10" d="M1965.3,1340.9h-159.7c-5.9,0-10.6-4.8-10.6-10.6
	v-33.7c0-5.9,4.8-10.6,10.6-10.6h159.7c5.9,0,10.6,4.8,10.6,10.6v33.7C1975.9,1336.1,1971.1,1340.9,1965.3,1340.9z"/>
<text transform="matrix(1 0 0 1 1854.3914 1387.2155)" fill="#FFFFFF" font-family="'Montserrat-Bold'" font-size="21">submit</text>
<text transform="matrix(1 0 0 1 1857.5551 1702.2374)" font-family="'Montserrat-Bold'" font-size="26.4038">21oz</text>
<g>
	<path fill="#42210B" stroke="#42210B" stroke-width="1.4944" stroke-miterlimit="10" d="M1618.1,1327c11.8,23.1-7.5,22.9-7.5,22.9
		h-32.1c0,0-19.3,0.3-7.5-22.9H1618.1z"/>
	
		<line fill="none" stroke="#000000" stroke-width="1.4944" stroke-linecap="round" stroke-miterlimit="10" x1="1574.8" y1="1326.4" x2="1572.1" y2="1333.9"/>
	
		<polyline fill="#FFFFFF" stroke="#000000" stroke-width="1.4944" stroke-linecap="round" stroke-linejoin="round" stroke-miterlimit="10" points="
		1580.5,1284.2 1569.3,1260 1617.7,1260 1606.6,1284.2 	"/>
	
		<ellipse stroke="#000000" stroke-width="1.1418" stroke-linecap="round" stroke-miterlimit="10" cx="1585.8" cy="1316.9" rx="1.7" ry="1"/>
	
		<ellipse stroke="#000000" stroke-width="1.1418" stroke-linecap="round" stroke-miterlimit="10" cx="1601" cy="1316.9" rx="1.7" ry="1"/>
	<path fill="none" stroke="#000000" stroke-width="1.4944" stroke-miterlimit="10" d="M1618.1,1327c-5.2-10.3-6.7-14.5-6.7-14.5
		s-8.1-14.9-1.8-28.8c0,0,13.9-20.2-0.7-20.2h-30.8c-14.6,0-0.7,20.2-0.7,20.2c6.3,13.8-1.8,28.8-1.8,28.8s-1.5,4.2-6.7,14.5
		c-11.8,23.1,7.5,22.9,7.5,22.9h34.4C1610.7,1349.8,1629.9,1350.1,1618.1,1327z"/>
	<g>
		<path fill="#C7B299" stroke="#000000" stroke-width="1.6451" stroke-miterlimit="10" d="M1608.3,1297.6c0,0.8,0.1,1.5,0.3,2.1
			c0.5,2.1,1.5,3.3,1.5,3.3c2.9,4.4,1.9,6.4,0.3,7.3s-4,0.7-4,0.7h-25.9c0,0-2.4,0.2-4-0.7s-2.6-2.9,0.3-7.3c0,0,1-1.2,1.5-3.3
			c0.2-0.6,0.3-1.3,0.3-2.1v-0.1c0-0.8-0.1-1.5-0.3-2.1c-0.5-2.1-1.5-3.3-1.5-3.3c-2.9-4.4-1.9-6.4-0.3-7.3s4-0.7,4-0.7h25.9
			c0,0,2.4-0.2,4,0.7s2.6,2.9-0.3,7.3c0,0-1,1.2-1.5,3.3C1608.5,1296.1,1608.4,1296.8,1608.3,1297.6L1608.3,1297.6z"/>
	</g>
	
		<line fill="none" stroke="#000000" stroke-width="1.4944" stroke-miterlimit="10" x1="1608.3" y1="1297.6" x2="1577.8" y2="1297.6"/>
	<circle fill="#FFFFFF" stroke="#000000" stroke-width="1.4944" stroke-miterlimit="10" cx="1593.5" cy="1297.6" r="3.6"/>
	<path fill="none" stroke="#000000" stroke-width="1.4944" stroke-linecap="round" stroke-miterlimit="10" d="M1589.9,1297.6
		c0,0-6,7.9-3.7,21"/>
	<path fill="none" stroke="#000000" stroke-width="1.4944" stroke-linecap="round" stroke-miterlimit="10" d="M1597.2,1297.6
		c0,0,6,7.9,3.7,21"/>
</g>
<g>
	<path fill="#42210B" stroke="#42210B" stroke-width="1.3768" stroke-miterlimit="10" d="M1595.7,1235.2c0,0-9.3,16.6,0,16.6
		C1595.7,1251.8,1605.3,1252.9,1595.7,1235.2z"/>
	<path fill="none" stroke="#000000" stroke-width="1.3768" stroke-miterlimit="10" d="M1593.4,1235.2c0,0-9.3,16.6,0,16.6
		C1593.4,1251.8,1603,1252.9,1593.4,1235.2z"/>
</g>
<text transform="matrix(1 0 0 1 1408.5461 1384.0881)" font-family="'Montserrat-Bold'" font-size="26.4038">21oz</text>
</svg>
